<svg width="24" height="24" viewBox="0 0 24 24" fill="none" xmlns="http://www.w3.org/2000/svg">
<path d="M0.000510281 0.0562496C0.0196822 0.0843746 2.1238 3.08437 4.67845 6.71719C7.22831 10.35 9.31804 13.3312 9.31804 13.3406C9.31804 13.35 0.695491 23.1703 0.0292681 23.9156C-0.0378335 23.9953 0.0148891 24 1.05496 24H2.15735L6.23137 19.3641L10.3102 14.7328L13.5646 19.3641L16.819 24H20.4281C23.3039 24 24.0325 23.9859 23.9989 23.9391C23.9797 23.9109 21.8133 20.8172 19.182 17.0719C16.5458 13.3266 14.3842 10.2375 14.3698 10.2047C14.3507 10.1484 15.5154 8.8125 21.6695 1.81406L23.2704 0H22.168H21.0656L17.2169 4.37812C15.0984 6.78281 13.3537 8.74687 13.3393 8.7375C13.325 8.73281 11.935 6.75937 10.2479 4.36406L7.18517 0H3.57607C0.79135 0 -0.0234546 0.0140621 0.000510281 0.0562496ZM13.416 11.7984C17.423 17.4094 20.7828 22.1109 20.8835 22.2516L21.0656 22.5H19.4696L17.8735 22.4953L10.5882 12.3C6.58126 6.68906 3.22139 1.9875 3.12073 1.84687L2.93381 1.59375H4.53466L6.13072 1.59844L13.416 11.7984Z" fill="white"/>
</svg>
